<svg width="98" height="99" viewBox="0 0 98 99" fill="none" xmlns="http://www.w3.org/2000/svg">
  <!-- Applying the transformation to the entire SVG to mirror it horizontally -->
  <g transform="scale(-1, 1) translate(-98, 0)">
    <rect width="96.0568" height="97.0919" transform="matrix(0.999962 -0.00872654 -0.00872654 -0.999962 1.604 98.6897)" />
    <g clip-path="url(#clip0_503_380)">
      <path fill-rule="evenodd" clip-rule="evenodd" d="M43.4891 82.2679C43.5757 84.4513 45.3619 86.1709 47.5236 86.152L53.5269 86.0996C55.6886 86.0807 57.4445 84.3302 57.493 82.1457L57.5182 81.0077L59.4861 80.9905C61.6965 80.9713 63.4725 79.1445 63.453 76.9103L63.4316 74.4567C67.8029 75.4165 72.5059 74.7089 76.4731 71.3076C84.7148 64.2416 83.8229 49.5881 73.8993 41.6555C71.5045 39.7411 69.6224 38.1532 68.3216 36.5114C68.0248 36.1369 67.7702 35.7742 67.5554 35.4189L71.6067 34.829C73.5893 34.5403 75.0552 32.8145 75.0375 30.7899L74.9713 23.2049C74.9518 20.9707 73.1442 19.1752 70.9338 19.1945L28.9517 19.5608C26.7413 19.5801 24.9652 21.4069 24.9847 23.6411L25.0509 31.2261C25.0686 33.2508 26.5644 34.9507 28.5517 35.2047L32.6127 35.7238C32.4042 36.0828 32.1559 36.4499 31.8657 36.8296C30.5938 38.4938 28.7397 40.1143 26.3786 42.0702C16.5949 50.1748 15.9589 64.8416 24.3227 71.7627C28.3487 75.0942 33.0633 75.7197 37.4172 74.6837L37.4386 77.1373C37.4581 79.3715 39.2658 81.167 41.4761 81.1477L43.444 81.1305L43.4891 82.2679Z" fill="#F4F7FA"/>
      <path fill-rule="evenodd" clip-rule="evenodd" d="M47.4883 82.1067L53.4916 82.0543L53.6038 76.9962L59.4508 76.9452L59.3979 70.8772L53.7385 70.9266L53.9535 64.0542C54.0643 64.1839 54.1784 64.311 54.2959 64.435C59.8134 70.2596 67.9452 73.3137 73.8839 68.2222C79.843 63.1132 79.7415 51.4828 71.417 44.8284C66.7014 41.0589 62.4754 37.4222 62.6351 32.048L71.0354 30.8248L70.9692 23.2398L28.987 23.6062L29.0532 31.1912L37.4735 32.2675C37.727 37.6382 33.5651 41.3481 28.916 45.1993C20.7089 51.998 20.8104 63.6283 26.8578 68.6326C32.8844 73.6197 40.9617 70.4241 46.3767 64.5041C46.492 64.378 46.6039 64.249 46.7124 64.1174L47.0473 70.985L41.3879 71.0344L41.4409 77.1024L47.2879 77.0514L47.4883 82.1067ZM41.6305 58.9225C45.2462 52.8164 45.6698 45.7117 45.6428 42.6238C43.8039 42.6366 36.8987 45.7796 33.2726 50.8722C30.6621 54.5385 30.0203 59.9499 32.3036 62.0286C34.587 64.1073 39.3706 62.7387 41.6305 58.9225ZM58.944 58.7714C55.2223 52.7293 54.6747 45.6331 54.6478 42.5453C56.4866 42.5259 63.4457 45.548 67.1601 50.5765C69.8342 54.1967 70.5703 59.596 68.3236 61.7143C66.0769 63.8325 61.2701 62.5476 58.944 58.7714Z" fill="#34364D"/>
    </g>
  </g>
  <defs>
    <clipPath id="clip0_503_380">
      <rect width="72.0426" height="72.8189" fill="white" transform="matrix(0.999962 -0.00872654 -0.00872654 -0.999962 13.5048 86.4489)"/>
    </clipPath>
  </defs>
</svg>
