<svg width="98" height="99" viewBox="0 0 98 99" fill="none" xmlns="http://www.w3.org/2000/svg">
<g transform="scale(-1, 1) translate(-98, 0)">
<rect width="96.0568" height="97.0919" transform="matrix(0.999962 -0.00872654 -0.00872654 -0.999962 1.71039 98.0132)"/>
<path d="M43.313 85.0004C44.6317 85.1387 45.9324 84.6079 46.7864 83.5831L54.8679 73.8855C64.2246 71.4614 69.5954 64.277 72.5227 55.3411C75.5389 46.1333 76.2032 34.4715 76.0989 22.5195C76.0794 20.2853 74.2717 18.4898 72.0613 18.5091L34.7456 18.8348C32.6209 18.8533 30.8811 20.5468 30.7828 22.6922C30.6951 24.6067 31.1597 27.9233 32.5166 31.3032L32.5415 31.3651C28.7544 29.3529 24.5754 29.8793 21.4895 32.1412C17.7393 34.8901 15.6872 40.2251 18.1305 45.4547C19.8924 49.2258 21.7732 51.2145 23.196 52.7185C24.5251 54.1234 25.0792 54.7416 25.4811 56.3076C27.9177 65.8027 32.8074 71.2421 38.0291 73.6984C37.9633 74.7831 38.0336 75.827 38.1735 76.774C38.5215 79.1315 39.3557 81.3055 40.2006 82.8927C40.8287 84.0729 41.9943 84.8622 43.313 85.0004Z" fill="#F4F7FA"/>
<path fill-rule="evenodd" clip-rule="evenodd" d="M52.671 70.2416L43.7251 80.9765C42.3948 78.4772 41.0876 74.057 42.8834 70.8422C41.9976 70.7703 41.1503 70.6263 40.4937 70.3666C36.3045 68.7098 31.6859 64.375 29.3552 55.2926C28.6803 52.6627 27.4961 51.4108 26.0885 49.923C24.7608 48.5195 23.2344 46.9059 21.7496 43.7278C18.6905 37.1803 26.734 30.5359 32.693 36.4549C36.0433 39.7827 38.9582 41.1431 41.4055 42.2853C44.9279 43.9292 47.4816 45.121 48.9701 51.0758C49.6293 48.2863 49.2986 41.7197 42.7026 37.7687C36.1066 33.8178 34.666 25.3864 34.7809 22.8801L72.0966 22.5545C72.3042 46.3378 69.3682 66.9137 52.671 70.2416Z" fill="#34364C"/>
<ellipse cx="3.00178" cy="3.03412" rx="3.00178" ry="3.03412" transform="matrix(0.999962 -0.00872654 -0.00872654 -0.999962 38.4132 61.282)" fill="#F4F7FA"/>
</g>
</svg>
