<svg width="98" height="99" viewBox="0 0 98 99" fill="none" xmlns="http://www.w3.org/2000/svg">
<rect width="96.0568" height="97.0919" transform="matrix(0.999962 -0.00872654 -0.00872654 -0.999962 1.76355 98.175)" />
<path d="M39.6346 80.6504C40.3636 80.6441 41.0453 80.4411 41.631 80.0918C42.2226 80.4308 42.9078 80.6219 43.6368 80.6155L54.6429 80.5195C55.3719 80.5131 56.0536 80.3101 56.6393 79.9608C57.231 80.2999 57.9161 80.4909 58.6451 80.4845L68.6506 80.3972C70.861 80.3779 72.6371 78.5511 72.6176 76.3169L72.5381 67.2149C72.527 65.9416 71.9234 64.7478 70.909 63.9926L64.6926 59.3649L66.3024 43.4422C66.7286 39.2267 68.6493 37.073 71.4411 33.241C71.9546 32.5363 72.228 31.6821 72.2204 30.8068L72.1498 22.7161C72.1303 20.482 70.3226 18.6864 68.1123 18.7057L29.0907 19.0463C26.8803 19.0656 25.1043 20.8924 25.1238 23.1265L25.1944 31.2172C25.202 32.0925 25.4903 32.9417 26.016 33.6374C28.8743 37.4201 30.8323 39.5399 31.332 43.7474L33.2195 59.6396L27.0847 64.3751C26.0836 65.1478 25.501 66.352 25.5121 67.6253L25.5915 76.7273C25.611 78.9615 27.4187 80.757 29.629 80.7377L39.6346 80.6504Z" fill="#F4F7FA"/>
<path d="M29.5938 76.6924L39.5993 76.6051L39.5463 70.5371L43.5486 70.5022L43.6015 76.5702L54.6076 76.4741L54.5547 70.4061L58.5569 70.3712L58.6098 76.4392L68.6154 76.3519L68.5359 67.2499L60.4785 61.2517L62.3208 43.0302L35.3058 43.2659L37.4658 61.4525L29.5143 67.5904L29.5938 76.6924Z" fill="#34364C"/>
<path d="M35.2705 39.2206L62.2855 38.9848L68.2182 30.8418L68.1476 22.7511L29.126 23.0916L29.1966 31.1823L35.2705 39.2206Z" fill="#34364C"/>
</svg>
