<svg width="98" height="99" viewBox="0 0 98 99" fill="none" xmlns="http://www.w3.org/2000/svg">
<g transform="scale(-1, 1) translate(-98, 0)">
<rect width="96.0568" height="97.0919" transform="matrix(0.999962 -0.00872654 -0.00872654 -0.999962 1.77948 98.3956)" />
<path d="M90.9092 11.7005L90.876 7.89983C90.7331 7.71422 90.5103 7.51108 90.2076 7.29041C89.9094 7.07425 89.5136 6.88857 89.02 6.73336C88.5265 6.57816 87.9129 6.50376 87.1792 6.51016C86.5548 6.51561 85.9838 6.62542 85.4661 6.83958C84.9485 7.0583 84.5024 7.37438 84.1277 7.78782C83.7576 8.20122 83.4726 8.70275 83.2726 9.29241C83.0727 9.88662 82.9761 10.562 82.9827 11.3185L82.9887 12.0089C82.9953 12.7608 83.0945 13.4299 83.2865 14.0161C83.4831 14.6069 83.7609 15.1058 84.1199 15.5128C84.4789 15.9198 84.91 16.226 85.4131 16.4312C85.9208 16.641 86.4937 16.7431 87.1317 16.7375C87.9474 16.7304 88.6207 16.5878 89.1515 16.3097C89.6869 16.0362 90.0983 15.6589 90.3858 15.1778C90.6733 14.6968 90.853 14.1483 90.9251 13.5324L89.2436 13.5471C89.1919 13.8939 89.0875 14.2047 88.9304 14.4796C88.7779 14.7543 88.5564 14.9705 88.2661 15.128C87.9804 15.29 87.6074 15.373 87.1472 15.377C86.7507 15.3805 86.4014 15.3083 86.0993 15.1605C85.7972 15.0128 85.5447 14.7939 85.3416 14.504C85.1431 14.2141 84.9919 13.8599 84.888 13.4416C84.7841 13.0232 84.7298 12.5451 84.7251 12.0074L84.7189 11.3033C84.7142 10.7564 84.7669 10.2706 84.8771 9.84581C84.9919 9.42096 85.1574 9.06176 85.3736 8.76819C85.5943 8.47459 85.8636 8.2512 86.1813 8.09803C86.499 7.94942 86.8584 7.87337 87.2594 7.86987C87.6513 7.86645 87.9729 7.89554 88.224 7.95715C88.4753 8.02332 88.6742 8.10134 88.8208 8.19121C88.9721 8.2856 89.0891 8.37573 89.1718 8.4616L89.1891 10.4371L87.1179 10.4552L87.129 11.7335L90.9092 11.7005Z" fill="#E8EDF9"/>
<path d="M43.3821 85.3828C44.7008 85.5211 46.0015 84.9903 46.8555 83.9655L54.937 74.2679C64.2937 71.8438 69.6645 64.6594 72.5918 55.7235C75.608 46.5157 76.2722 34.8539 76.1679 22.9019C76.1484 20.6677 74.3408 18.8722 72.1304 18.8915L34.8147 19.2172C32.69 19.2357 30.9502 20.9292 30.8519 23.0746C30.7642 24.9891 31.2288 28.3057 32.5857 31.6856L32.6106 31.7475C28.8235 29.7353 24.6445 30.2617 21.5586 32.5236C17.8084 35.2725 15.7563 40.6075 18.1996 45.8371C19.9615 49.6082 21.8423 51.5969 23.2651 53.1009C24.5942 54.5058 25.1483 55.124 25.5502 56.69C27.9868 66.1851 32.8765 71.6245 38.0982 74.0808C38.0324 75.1655 38.1027 76.2094 38.2425 77.1564C38.5906 79.5139 39.4248 81.6879 40.2696 83.2751C40.8978 84.4553 42.0634 85.2446 43.3821 85.3828Z" fill="#34364C"/>
<path fill-rule="evenodd" clip-rule="evenodd" d="M52.74 70.624L43.7942 81.3589C42.4638 78.8596 41.1567 74.4394 42.9525 71.2246C42.0666 71.1527 41.2194 71.0087 40.5628 70.749C36.3736 69.0922 31.755 64.7574 29.4243 55.675C28.7494 53.0451 27.5652 51.7932 26.1576 50.3054C24.8299 48.9019 23.3035 47.2883 21.8186 44.1102C18.7596 37.5627 26.8031 30.9183 32.7621 36.8373C36.1124 40.1651 39.0273 41.5255 41.4746 42.6677C44.997 44.3116 47.5507 45.5034 49.0392 51.4582C49.6984 48.6687 49.3677 42.1021 42.7717 38.1511C36.1757 34.2002 34.7351 25.7688 34.85 23.2625L72.1657 22.9369C72.3732 46.7202 69.4373 67.2961 52.74 70.624Z" fill="#F4F7FA"/>
<ellipse cx="3.00178" cy="3.03412" rx="3.00178" ry="3.03412" transform="matrix(0.999962 -0.00872654 -0.00872654 -0.999962 38.4823 61.6644)" fill="#34364C"/>
</g>
</svg>
