<svg width="98" height="99" viewBox="0 0 98 99" fill="none" xmlns="http://www.w3.org/2000/svg">
<rect width="96.0568" height="97.0919" transform="matrix(0.999962 -0.00872654 -0.00872654 -0.999962 1.62671 98.4838)"/>
<path d="M36.2848 44.4481C35.8015 43.7934 35.2258 43.1122 34.5555 42.4122C32.1899 39.9417 29.2975 37.9174 27.4329 36.862L27.1192 36.6845C25.866 35.9751 25.0847 34.6414 25.072 33.1897L24.9869 23.4354C24.9674 21.2013 26.7434 19.3745 28.9538 19.3552L67.9754 19.0146C70.1858 18.9953 71.9934 20.7909 72.0129 23.025L72.0981 32.7793C72.1107 34.231 71.3529 35.5781 70.1122 36.3093L69.8017 36.4922C67.9558 37.58 65.0991 39.6545 62.777 42.1659C62.119 42.8775 61.5553 43.5686 61.0835 44.2317C62.8437 44.644 64.1628 46.2312 64.1794 48.1379L64.2369 54.723C64.2483 56.0374 63.6273 57.2754 62.5715 58.0427L60.8823 59.2703C61.8799 61.188 62.454 63.369 62.4742 65.6839C62.542 73.4504 56.3681 79.8007 48.6845 79.8677C41.0008 79.9348 34.7171 73.6932 34.6493 65.9268C34.6279 63.4816 35.2269 61.1757 36.2951 59.1634L35.038 58.2829C33.969 57.5342 33.3265 56.3072 33.315 54.9928L33.2575 48.4078C33.2409 46.5011 34.532 44.8911 36.2848 44.4481Z" fill="#34364C"/>
<path d="M58.472 65.7189C58.4466 62.8136 57.2002 60.208 55.2295 58.3953L60.2347 54.7579L60.1772 48.1728L55.2466 48.2159C55.4578 45.1614 57.3687 42.0897 59.8526 39.4033C62.4887 36.5523 65.6701 34.2437 67.7853 32.9972L68.0959 32.8143L68.0107 23.06L28.9891 23.4005L29.0742 33.1548L29.3879 33.3323C31.5246 34.5417 34.7457 36.7944 37.4312 39.599C39.9617 42.2417 41.9259 45.2795 42.1903 48.3298L37.2597 48.3728L37.3172 54.9579L42.0371 58.2637C39.9397 60.1192 38.625 62.8534 38.6515 65.8918C38.6998 71.4241 43.1759 75.8702 48.6492 75.8224C54.1224 75.7746 58.5203 71.2511 58.472 65.7189Z" fill="#F4F7FA"/>
</svg>
