<svg width="98" height="99" viewBox="0 0 98 99" fill="none" xmlns="http://www.w3.org/2000/svg">
<rect width="96.0568" height="97.0919" transform="matrix(0.999962 -0.00872654 -0.00872654 -0.999962 1.72626 98.2339)"/>
<path d="M85.8879 16.4494L85.801 6.49668L84.0852 6.51165L84.1721 16.4644L85.8879 16.4494ZM89.9103 12.0597L89.8984 10.6994L85.4005 10.7386L85.4124 12.0989L89.9103 12.0597ZM90.5156 16.409L90.5037 15.0419L85.4384 15.0861L85.4504 16.4532L90.5156 16.409Z" fill="#B7C0D8"/>
<path d="M39.8066 68.688C39.4142 69.8082 39.2048 71.0155 39.2158 72.2713C39.2662 78.0501 43.9417 82.6942 49.659 82.6444C55.3762 82.5945 59.97 77.8694 59.9195 72.0906C59.9047 70.3978 59.4905 68.7967 58.7686 67.3841C59.789 67.3038 60.777 66.8301 61.493 65.9883C65.3832 61.4144 68.7657 54.9118 68.7002 47.4094C68.6534 42.0457 66.7918 38.0871 64.2982 35.2449L68.9796 34.3728C70.891 34.0167 72.2728 32.324 72.2556 30.3594L72.1894 22.7744C72.1801 21.7015 71.7494 20.6762 70.9923 19.9241C70.2351 19.172 69.2134 18.7547 68.1519 18.764L30.0539 19.0964C27.8436 19.1157 26.0675 20.9425 26.087 23.1767L26.1532 30.7617C26.1703 32.724 27.5783 34.3912 29.493 34.7164L33.729 35.4357C31.2518 38.3267 29.4293 42.3398 29.4765 47.7517C29.5276 53.605 31.8163 58.683 34.4824 62.5667C36.1583 65.0078 38.0495 67.0761 39.8066 68.688Z" fill="#34364C"/>
<path d="M51.3202 48.096L47.318 48.1309C47.3828 55.559 49.6765 62.9551 54.655 68.3402C55.437 69.3966 55.9049 70.7052 55.9173 72.1255C55.9482 75.6701 53.1305 78.5684 49.6237 78.599C46.1168 78.6296 43.2489 75.781 43.218 72.2363C43.2027 70.4875 43.8809 68.896 44.9931 67.7286C41.0018 64.9051 33.5625 57.3085 33.4788 47.7168C33.3943 38.037 40.8684 34.0527 44.8002 33.2138L30.1554 30.7268L30.0892 23.1418L68.1872 22.8093L68.2534 30.3943L53.3079 33.1785C57.299 34.03 64.6148 37.912 64.698 47.4443C64.7524 53.6859 61.9244 59.2748 58.4578 63.3507C54.5853 60.3503 51.3656 53.2985 51.3202 48.096Z" fill="#F4F7FA"/>
</svg>
