<svg width="98" height="99" viewBox="0 0 98 99" fill="none" xmlns="http://www.w3.org/2000/svg">
<rect width="96.0568" height="97.0919" transform="matrix(0.999962 -0.00872654 -0.00872654 -0.999962 1.65717 98.8514)"/>
<path d="M39.7375 69.3056C39.3451 70.4258 39.1357 71.6331 39.1467 72.8888C39.1971 78.6677 43.8727 83.3118 49.5899 83.2619C55.3071 83.212 59.9009 78.487 59.8504 72.7082C59.8357 71.0154 59.4214 69.4143 58.6996 68.0016C59.7199 67.9213 60.7079 67.4477 61.4239 66.6059C65.3141 62.032 68.6966 55.5294 68.6311 48.027C68.5843 42.6633 66.7227 38.7047 64.2291 35.8625L68.9105 34.9904C70.8219 34.6343 72.2037 32.9416 72.1866 30.977L72.1204 23.392C72.111 22.3191 71.6804 21.2938 70.9232 20.5417C70.166 19.7896 69.1443 19.3723 68.0828 19.3815L29.9848 19.714C27.7745 19.7333 25.9984 21.5601 26.0179 23.7943L26.0841 31.3793C26.1012 33.3416 27.5092 35.0088 29.4239 35.334L33.6599 36.0533C31.1827 38.9443 29.3602 42.9573 29.4075 48.3693C29.4585 54.2226 31.7472 59.3006 34.4134 63.1843C36.0892 65.6254 37.9804 67.6937 39.7375 69.3056Z" fill="#F4F7FA"/>
<path d="M51.2511 48.7135L47.2489 48.7485C47.3137 56.1766 49.6074 63.5727 54.5859 68.9578C55.3679 70.0142 55.8358 71.3228 55.8482 72.7431C55.8792 76.2877 53.0614 79.186 49.5546 79.2166C46.0477 79.2472 43.1798 76.3986 43.1489 72.8539C43.1336 71.1051 43.8118 69.5136 44.924 68.3462C40.9327 65.5227 33.4934 57.9261 33.4097 48.3344C33.3252 38.6546 40.7993 34.6703 44.7311 33.8314L30.0863 31.3444L30.0201 23.7594L68.1181 23.4269L68.1843 31.0119L53.2388 33.7961C57.2299 34.6476 64.5457 38.5296 64.6289 48.0619C64.6834 54.3035 61.8553 59.8924 58.3887 63.9683C54.5162 60.9679 51.2965 53.9161 51.2511 48.7135Z" fill="#34364C"/>
</svg>
