<svg width="98" height="99" viewBox="0 0 98 99" fill="none" xmlns="http://www.w3.org/2000/svg">
  <rect width="96.0568" height="97.0919" transform="matrix(0.999962 -0.00872654 -0.00872654 -0.999962 1.75671 98.6015)"/>
  <path d="M36.4148 44.5657C35.9315 43.911 35.3558 43.2299 34.6855 42.5298C32.3199 40.0593 29.4275 38.035 27.5629 36.9796L27.2492 36.8021C25.996 36.0927 25.2147 34.7591 25.202 33.3074L25.1169 23.5531C25.0974 21.3189 26.8735 19.4921 29.0838 19.4728L68.1054 19.1323C70.3158 19.113 72.1234 20.9085 72.1429 23.1427L72.2281 32.897C72.2407 34.3487 71.4829 35.6958 70.2422 36.4269L69.9317 36.6099C68.0858 37.6976 65.2291 39.7721 62.907 42.2835C62.249 42.9952 61.6853 43.6863 61.2135 44.3493C62.9737 44.7616 64.2928 46.3488 64.3094 48.2555L64.3669 54.8406C64.3783 56.155 63.7573 57.393 62.7015 58.1603L61.0123 59.3879C62.0099 61.3056 62.584 63.4866 62.6042 65.8016C62.672 73.568 56.4981 79.9183 48.8145 79.9854C41.1308 80.0524 34.8471 73.8108 34.7793 66.0444C34.7579 63.5992 35.3569 61.2933 36.4251 59.281L35.168 58.4006C34.099 57.6518 33.4565 56.4249 33.445 55.1104L33.3875 48.5254C33.3709 46.6187 34.662 45.0087 36.4148 44.5657Z" fill="#F4F7FA"/>
  <path d="M58.602 65.8365C58.5767 62.9313 57.3302 60.3256 55.3595 58.513L60.3647 54.8755L60.3072 48.2905L55.3766 48.3335C55.5878 45.2791 57.4987 42.2074 59.9826 39.5209C62.6188 36.67 65.8001 34.3614 67.9153 33.1149L68.2259 32.9319L68.1407 23.1776L29.1191 23.5181L29.2042 33.2724L29.5179 33.45C31.6546 34.6594 34.8757 36.9121 37.5612 39.7166C40.0917 42.3593 42.0559 45.3972 42.3203 48.4474L37.3897 48.4905L37.4472 55.0755L42.1671 58.3813C40.0697 60.2368 38.755 62.971 38.7815 66.0095C38.8298 71.5417 43.3059 75.9878 48.7792 75.94C54.2525 75.8923 58.6503 71.3688 58.602 65.8365Z" fill="#34364C"/>
</svg>
