<svg width="98" height="99" viewBox="0 0 98 99" fill="none" xmlns="http://www.w3.org/2000/svg">
<rect width="96.0568" height="97.0919" transform="matrix(0.999962 -0.00872654 -0.00872654 -0.999962 1.55084 98.5279)"/>
<path d="M31.3733 76.0166C31.3646 75.018 31.5151 74.0559 31.8009 73.1547L29.8172 72.2353C28.1944 73.9655 25.9052 75.0529 23.36 75.0751C18.3867 75.1185 14.3195 71.0785 14.2756 66.0516C14.2365 61.5706 17.4076 57.818 21.6194 57.025L26.2206 40.5407C26.3167 40.1966 26.4574 39.8669 26.6392 39.5602L29.3344 35.0133L29.3175 35.0104C27.4028 34.6853 25.9949 33.0181 25.9778 31.0558L25.9116 23.4708C25.8921 21.2366 27.6681 19.4098 29.8785 19.3905L67.9765 19.058C69.0379 19.0488 70.0596 19.4661 70.8168 20.2182C71.574 20.9703 72.0046 21.9955 72.014 23.0684L72.0802 30.6535C72.0973 32.618 70.7156 34.3108 68.8041 34.6669L68.7238 34.6819L71.4903 39.1688C71.6774 39.4723 71.8239 39.7995 71.9259 40.1418L76.8142 56.5433C81.0392 57.2627 84.2753 60.9594 84.3144 65.4404C84.3582 70.4673 80.3621 74.5776 75.3888 74.621C72.8405 74.6433 70.53 73.5934 68.8768 71.8879L66.9129 72.8402C67.2162 73.7385 67.3845 74.7007 67.3932 75.7022C67.4371 80.7291 63.441 84.8394 58.4677 84.8828C53.4944 84.9262 49.4271 80.8863 49.3833 75.8594C49.4271 80.8863 45.431 84.9966 40.4577 85.04C35.4844 85.0834 31.4172 81.0435 31.3733 76.0166Z" fill="#F4F7FA"/>
<path d="M42.1329 71.2012C44.015 71.9143 45.3623 73.7414 45.381 75.8943C45.4054 78.6871 43.1854 80.9706 40.4224 80.9947C37.6595 81.0188 35.3999 78.7744 35.3755 75.9817C35.353 73.4009 37.2472 71.255 39.7152 70.9251L37.325 52.7021L26.6523 62.2378C27.6438 63.1526 28.2706 64.4657 28.2834 65.9294C28.3077 68.7221 26.0877 71.0056 23.3247 71.0297C20.5618 71.0539 18.3022 68.8094 18.2778 66.0167C18.2535 63.224 20.4735 60.9405 23.2365 60.9164C23.7229 60.9121 24.1936 60.9782 24.6394 61.1052L30.0727 41.6399L35.7829 32.0063L29.98 31.0209L29.9138 23.4359L68.0118 23.1034L68.078 30.6884L62.2189 31.7799L68.0937 41.3081L73.8659 60.6756C74.3093 60.5408 74.7789 60.4666 75.2653 60.4623C78.0282 60.4382 80.2878 62.6826 80.3122 65.4754C80.3366 68.2681 78.1165 70.5516 75.3535 70.5757C72.5906 70.5998 70.331 68.3554 70.3066 65.5627C70.2939 64.0989 70.8976 62.7751 71.873 61.8431L61.0356 52.4952L58.9637 70.7571C61.4372 71.0439 63.3685 73.1564 63.391 75.7372C63.4154 78.5299 61.1953 80.8134 58.4324 80.8375C55.6694 80.8616 53.4099 78.6172 53.3855 75.8245C53.3667 73.6715 54.6818 71.8212 56.5513 71.0754L49.1979 54.6214L42.1329 71.2012Z" fill="#34364C"/>
</svg>
