<svg width="98" height="99" viewBox="0 0 98 99" fill="none" xmlns="http://www.w3.org/2000/svg">
<rect width="96.0568" height="97.0919" transform="matrix(0.999962 -0.00872654 -0.00872654 -0.999962 1.83264 98.5574)" />
<path d="M89.7039 12.5842L89.692 11.2239L84.408 11.27L84.4199 12.6303L89.7039 12.5842ZM84.88 16.7827L84.7931 6.82992L83.0774 6.84489L83.1642 16.7976L84.88 16.7827ZM91.0594 16.7287L90.9726 6.77599L89.2636 6.7909L89.3505 16.7436L91.0594 16.7287Z" fill="#B7C0D8"/>
<path d="M39.7037 81.0329C40.4327 81.0265 41.1144 80.8235 41.7001 80.4742C42.2917 80.8133 42.9769 81.0043 43.7059 80.9979L54.712 80.9019C55.441 80.8955 56.1227 80.6926 56.7084 80.3432C57.3001 80.6823 57.9852 80.8733 58.7142 80.867L68.7197 80.7796C70.9301 80.7604 72.7061 78.9336 72.6867 76.6994L72.6072 67.5974C72.5961 66.3241 71.9925 65.1302 70.9781 64.375L64.7617 59.7474L66.3715 43.8246C66.7977 39.6091 68.7184 37.4555 71.5102 33.6234C72.0237 32.9187 72.2971 32.0646 72.2895 31.1893L72.2189 23.0986C72.1994 20.8644 70.3917 19.0689 68.1814 19.0882L29.1598 19.4287C26.9494 19.448 25.1734 21.2748 25.1929 23.509L25.2635 31.5997C25.2711 32.4749 25.5594 33.3242 26.0851 34.0199C28.9434 37.8026 30.9014 39.9224 31.4011 44.1298L33.2885 60.022L27.1538 64.7575C26.1527 65.5303 25.5701 66.7344 25.5812 68.0077L25.6606 77.1098C25.6801 79.3439 27.4878 81.1395 29.6981 81.1202L39.7037 81.0329Z" fill="#34364C"/>
<path d="M29.6628 77.0748L39.6684 76.9875L39.6154 70.9195L43.6176 70.8846L43.6706 76.9526L54.6767 76.8565L54.6237 70.7885L58.626 70.7536L58.6789 76.8216L68.6844 76.7343L68.605 67.6323L60.5476 61.6341L62.3899 43.4126L35.3749 43.6484L37.5349 61.8349L29.5834 67.9728L29.6628 77.0748Z" fill="#F4F7FA"/>
<path d="M35.3396 39.603L62.3546 39.3673L68.2873 31.2242L68.2167 23.1335L29.1951 23.474L29.2657 31.5647L35.3396 39.603Z" fill="#F4F7FA"/>
</svg>
