<svg width="98" height="99" viewBox="0 0 98 99" fill="none" xmlns="http://www.w3.org/2000/svg">
<rect width="96.0568" height="97.0919" transform="matrix(0.999962 -0.00872654 -0.00872654 -0.999962 1.61993 98.9103)"/>
<path d="M86.1527 7.16916L84.0268 7.18771L84.0523 8.5479L86.1645 8.52946C86.7798 8.52409 87.2959 8.65403 87.7129 8.91929C88.1345 9.1845 88.4523 9.56683 88.6663 10.0663C88.8849 10.5657 88.9972 11.1617 89.0032 11.8544L89.0079 12.3944C89.0126 12.9322 88.9553 13.4089 88.8359 13.8247C88.721 14.2404 88.5463 14.5906 88.3118 14.8752C88.0819 15.1598 87.7966 15.3765 87.4561 15.5253C87.1202 15.6741 86.7312 15.7504 86.2891 15.7542L84.0607 15.7737L84.0726 17.1408L86.301 17.1214C86.9618 17.1156 87.5647 16.9987 88.1096 16.7706C88.6545 16.5471 89.1234 16.2263 89.5163 15.8081C89.9137 15.3899 90.217 14.8905 90.4261 14.3099C90.6352 13.7293 90.7367 13.0812 90.7304 12.3657L90.7258 11.8394C90.7196 11.1239 90.6068 10.4777 90.3876 9.90086C90.1684 9.32398 89.8564 8.82994 89.4518 8.41874C89.0472 8.0121 88.5659 7.69956 88.008 7.48111C87.4547 7.26718 86.8362 7.1632 86.1527 7.16916ZM85.0638 17.1322L84.9769 7.17942L83.2612 7.1944L83.348 17.1471L85.0638 17.1322Z" fill="#B7C0D8"/>
<path d="M31.4424 76.399C31.4337 75.4005 31.5842 74.4383 31.87 73.5372L29.8863 72.6177C28.2635 74.348 25.9743 75.4353 23.4291 75.4575C18.4558 75.5009 14.3886 71.461 14.3447 66.4341C14.3056 61.9531 17.4767 58.2004 21.6885 57.4075L26.2897 40.9231C26.3858 40.579 26.5265 40.2493 26.7083 39.9427L29.4035 35.3957L29.3866 35.3929C27.4719 35.0677 26.064 33.4005 26.0469 31.4382L25.9807 23.8532C25.9612 21.619 27.7372 19.7922 29.9476 19.773L68.0456 19.4405C69.107 19.4312 70.1287 19.8485 70.8859 20.6006C71.6431 21.3527 72.0737 22.378 72.0831 23.4509L72.1493 31.0359C72.1664 33.0005 70.7847 34.6932 68.8732 35.0493L68.7928 35.0643L71.5594 39.5513C71.7465 39.8547 71.893 40.1819 71.995 40.5243L76.8832 56.9258C81.1083 57.6451 84.3444 61.3418 84.3835 65.8229C84.4273 70.8498 80.4312 74.9601 75.4579 75.0035C72.9095 75.0257 70.5991 73.9758 68.9459 72.2704L66.982 73.2226C67.2853 74.121 67.4536 75.0831 67.4623 76.0847C67.5062 81.1116 63.5101 85.2219 58.5368 85.2653C53.5634 85.3087 49.4962 81.2687 49.4523 76.2418C49.4962 81.2687 45.5001 85.379 40.5268 85.4224C35.5535 85.4658 31.4862 81.4259 31.4424 76.399Z" fill="#34364C"/>
<path d="M42.202 71.5836C44.0841 72.2967 45.4314 74.1238 45.4501 76.2767C45.4745 79.0695 43.2545 81.353 40.4915 81.3771C37.7285 81.4012 35.469 79.1568 35.4446 76.3641C35.4221 73.7833 37.3162 71.6374 39.7843 71.3075L37.3941 53.0846L26.7214 62.6202C27.7129 63.535 28.3397 64.8481 28.3525 66.3118C28.3768 69.1045 26.1568 71.388 23.3938 71.4122C20.6309 71.4363 18.3713 69.1919 18.3469 66.3991C18.3226 63.6064 20.5426 61.3229 23.3056 61.2988C23.7919 61.2946 24.2627 61.3606 24.7085 61.4876L30.1418 42.0223L35.852 32.3888L30.0491 31.4033L29.9829 23.8183L68.0809 23.4858L68.1471 31.0708L62.288 32.1623L68.1628 41.6905L73.935 61.058C74.3784 60.9233 74.848 60.849 75.3344 60.8448C78.0973 60.8206 80.3569 63.065 80.3813 65.8578C80.4056 68.6505 78.1856 70.934 75.4226 70.9581C72.6597 70.9822 70.4001 68.7378 70.3757 65.9451C70.363 64.4814 70.9667 63.1575 71.9421 62.2256L61.1046 52.8776L59.0328 71.1395C61.5063 71.4263 63.4376 73.5388 63.4601 76.1196C63.4845 78.9123 61.2644 81.1958 58.5015 81.2199C55.7385 81.244 53.4789 78.9996 53.4546 76.2069C53.4358 74.0539 54.7509 72.2036 56.6203 71.4578L49.267 55.0038L42.202 71.5836Z" fill="#F4F7FA"/>
</svg>
