<svg width="98" height="99" viewBox="0 0 98 99" fill="none" xmlns="http://www.w3.org/2000/svg">
<rect width="96.0568" height="97.0919" transform="matrix(0.999962 -0.00872654 -0.00872654 -0.999962 1.6731 98.0721)"/>
<path d="M90.4558 7.65425L90.444 6.29395L85.16 6.34006L85.1718 7.70036L90.4558 7.65425ZM85.7322 16.2886L85.6453 6.33583L83.9296 6.3508L84.0164 16.3035L85.7322 16.2886ZM89.8041 12.0966L89.7924 10.7568L85.1989 10.7969L85.2106 12.1367L89.8041 12.0966ZM90.4966 16.247L90.4847 14.8799L85.2349 14.9257L85.2468 16.2928L90.4966 16.247Z" fill="#E8EDF9"/>
<g clip-path="url(#clip0_503_361)">
<path fill-rule="evenodd" clip-rule="evenodd" d="M43.5582 81.6503C43.6448 83.8337 45.431 85.5533 47.5927 85.5344L53.596 85.482C55.7577 85.4631 57.5136 83.7126 57.5621 81.5281L57.5873 80.3901L59.5552 80.3729C61.7656 80.3537 63.5416 78.5269 63.5221 76.2927L63.5007 73.8391C67.872 74.7989 72.5749 74.0913 76.5422 70.69C84.7839 63.624 83.892 48.9705 73.9684 41.0379C71.5736 39.1235 69.6915 37.5356 68.3907 35.8938C68.0939 35.5193 67.8393 35.1566 67.6245 34.8013L71.6758 34.2114C73.6584 33.9227 75.1243 32.1969 75.1066 30.1723L75.0404 22.5873C75.0209 20.3531 73.2133 18.5576 71.0029 18.5769L29.0207 18.9432C26.8104 18.9625 25.0343 20.7893 25.0538 23.0235L25.12 30.6085C25.1377 32.6332 26.6335 34.3331 28.6208 34.5871L32.6818 35.1062C32.4733 35.4652 32.225 35.8323 31.9348 36.212C30.6629 37.8762 28.8087 39.4967 26.4477 41.4526C16.664 49.5572 16.028 64.224 24.3918 71.1451C28.4178 74.4766 33.1324 75.1021 37.4863 74.0661L37.5077 76.5197C37.5272 78.7539 39.3349 80.5494 41.5452 80.5301L43.5131 80.5129L43.5582 81.6503Z" fill="#34364C"/>
<path fill-rule="evenodd" clip-rule="evenodd" d="M47.5574 81.4891L53.5607 81.4367L53.6729 76.3786L59.5199 76.3276L59.467 70.2596L53.8076 70.309L54.0226 63.4366C54.1334 63.5663 54.2475 63.6934 54.365 63.8174C59.8825 69.642 68.0143 72.6961 73.953 67.6046C79.9121 62.4956 79.8106 50.8652 71.4861 44.2108C66.7705 40.4413 62.5445 36.8046 62.7042 31.4304L71.1045 30.2072L71.0383 22.6222L29.0561 22.9886L29.1223 30.5736L37.5426 31.6499C37.7961 37.0206 33.6342 40.7305 28.9851 44.5817C20.778 51.3804 20.8795 63.0107 26.9269 68.015C32.9535 73.0021 41.0308 69.8065 46.4458 63.8865C46.5611 63.7604 46.673 63.6314 46.7815 63.4998L47.1164 70.3674L41.457 70.4168L41.51 76.4848L47.3569 76.4338L47.5574 81.4891ZM41.6995 58.3049C45.3153 52.1988 45.7389 45.0941 45.7119 42.0062C43.873 42.019 36.9677 45.162 33.3417 50.2546C30.7312 53.9209 30.0894 59.3323 32.3727 61.411C34.6561 63.4897 39.4397 62.1211 41.6995 58.3049ZM59.0131 58.1538C55.2914 52.1117 54.7438 45.0155 54.7169 41.9277C56.5557 41.9083 63.5148 44.9304 67.2292 49.9589C69.9033 53.5791 70.6394 58.9784 68.3927 61.0967C66.146 63.2149 61.3392 61.93 59.0131 58.1538Z" fill="#F4F7FA"/>
</g>
<defs>
<clipPath id="clip0_503_361">
<rect width="72.0426" height="72.8189" fill="white" transform="matrix(0.999962 -0.00872654 -0.00872654 -0.999962 13.5739 85.8313)"/>
</clipPath>
</defs>
</svg>
